<svg width="86" height="86" viewBox="0 0 86 86" fill="none" xmlns="http://www.w3.org/2000/svg">
<path d="M55.9609 86H0V30.0391C0 13.4385 13.4385 0 30.0391 0H86V55.9609C86 72.5285 72.5285 86 55.9609 86Z" fill="#F54B4B"/>
<path d="M17.1275 73.1874C14.5913 73.1874 10.4741 72.5616 8.79425 72.2981C8.399 72.2322 8.10256 71.8699 8.16844 71.4746L8.46487 68.7737C8.49781 68.5761 8.59662 68.3785 8.76131 68.2467C8.89306 68.1479 9.05775 68.082 9.22244 68.082C9.25538 68.082 9.28831 68.082 9.32125 68.082C10.5399 68.2467 14.6242 68.7079 17.0945 68.7079C20.3883 68.7079 21.8705 67.3574 21.8705 64.3272C21.8705 61.8239 20.7506 61.1322 16.6663 59.9135C13.5702 58.9583 11.3963 58.102 10.0459 56.7845C8.69544 55.4999 8.1355 53.7871 8.1355 51.0533C8.1355 48.3524 9.02481 46.2774 10.7705 44.894C12.3844 43.6094 14.6901 42.9507 17.5886 42.9507C20.1577 42.9507 23.7808 43.5765 25.2301 43.8071C25.6253 43.8729 25.8888 44.2353 25.8559 44.6305L25.6253 47.2984C25.5924 47.4961 25.4936 47.6937 25.3618 47.8254C25.2301 47.9243 25.0654 47.9901 24.9007 47.9901C24.8678 47.9901 24.8348 47.9901 24.8019 47.9901C23.6162 47.8584 19.6307 47.3973 17.6215 47.3973C14.3278 47.3973 12.7138 48.5501 12.7138 50.9545C12.7138 53.9848 14.2289 54.4788 18.7743 55.8622C21.3435 56.6857 23.3197 57.4762 24.6043 58.6948C25.8888 59.9465 26.4817 61.6922 26.4817 64.1954C26.4817 67.2915 25.6912 69.5313 24.0443 71.0135C22.4633 72.4957 20.1577 73.1874 17.1275 73.1874Z" fill="white"/>
<path d="M36.2643 47.8251C36.0008 47.8251 35.7703 48.0556 35.7703 48.3191V67.9499C35.7703 68.2134 36.0008 68.444 36.2643 68.444H41.4685C44.0376 68.444 45.8492 67.39 46.9032 65.3149C47.7595 63.6022 48.1548 61.1648 48.1548 57.6405C48.1548 54.215 47.7595 52.0081 46.9032 50.493C45.8821 48.6815 44.1364 47.8251 41.4685 47.8251H36.2643ZM41.4685 72.7917H32.0154C31.5872 72.7917 31.2578 72.4624 31.2578 72.0342V44.2678C31.2578 43.8396 31.5872 43.5103 32.0154 43.5103H41.4685C45.7833 43.5103 48.7477 44.7619 50.5263 47.331C52.0744 49.5708 52.799 52.8316 52.799 57.6405C52.799 62.647 52.1073 66.1054 50.5922 68.5099C48.8135 71.3754 45.8162 72.7917 41.4685 72.7917Z" fill="white"/>
<path d="M62.5155 47.858C62.252 47.858 62.0215 48.0886 62.0215 48.3521V58.7274C62.0215 58.9909 62.252 59.2215 62.5155 59.2215H68.1808C70.5194 59.2215 73.2861 58.1675 73.2861 53.1939C73.2861 49.5049 71.6722 47.7921 68.1808 47.7921H62.5155V47.858ZM61.2639 72.7917H58.2666C57.8384 72.7917 57.509 72.4624 57.509 72.0342V44.2678C57.509 43.8396 57.8384 43.5103 58.2666 43.5103H68.2137C71.5075 43.5103 73.9119 44.3008 75.5259 45.9147C77.1398 47.5286 77.9303 49.9331 77.9303 53.2598C77.9303 56.5535 77.1069 59.1227 75.5259 60.9013C73.879 62.7129 71.4087 63.6351 68.2137 63.6351H62.5485C62.285 63.6351 62.0544 63.8657 62.0544 64.1292V72.0342C62.0215 72.4294 61.6921 72.7917 61.2639 72.7917Z" fill="white"/>
</svg>
