<svg width="24" height="27" viewBox="0 0 24 27" fill="none" xmlns="http://www.w3.org/2000/svg">
<path fill-rule="evenodd" clip-rule="evenodd" d="M2 7.88233C2 5.1209 4.23858 2.88232 7 2.88232H17C19.7614 2.88232 22 5.1209 22 7.88232V19.6923C22 22.4537 19.7614 24.6923 17 24.6923H7C4.23858 24.6923 2 22.4537 2 19.6923V7.88233Z" stroke="white" stroke-width="2" stroke-linecap="round" stroke-linejoin="round"/>
<path fill-rule="evenodd" clip-rule="evenodd" d="M16.0001 13.1003C16.2532 14.9617 15.3831 16.7904 13.8417 17.6364C12.3003 18.4824 10.4351 18.1552 9.2149 16.8245C7.99469 15.4939 7.69455 13.4599 8.47038 11.779C9.24621 10.0981 10.9231 9.14928 12.6301 9.42531C14.373 9.70716 15.7416 11.1996 16.0001 13.1003Z" stroke="white" stroke-width="2" stroke-linecap="round" stroke-linejoin="round"/>
<ellipse cx="18" cy="7.24431" rx="1" ry="1.0905" fill="white"/>
</svg>
